<svg width="1080" height="201" viewBox="0 0 1080 201" fill="none" xmlns="http://www.w3.org/2000/svg">
<g clip-path="url(#clip0_879_721)">
<path d="M89.5 164C98.0604 164 105 157.06 105 148.5C105 139.94 98.0604 133 89.5 133C80.9396 133 74 139.94 74 148.5C74 157.06 80.9396 164 89.5 164Z" fill="#E40613"/>
<path d="M162.5 164C171.06 164 178 157.06 178 148.5C178 139.94 171.06 133 162.5 133C153.94 133 147 139.94 147 148.5C147 157.06 153.94 164 162.5 164Z" fill="#E40613"/>
<path d="M286.5 164C295.06 164 302 157.06 302 148.5C302 139.94 295.06 133 286.5 133C277.94 133 271 139.94 271 148.5C271 157.06 277.94 164 286.5 164Z" fill="#E40613"/>
<path d="M286.5 92C295.06 92 302 85.0604 302 76.5C302 67.9396 295.06 61 286.5 61C277.94 61 271 67.9396 271 76.5C271 85.0604 277.94 92 286.5 92Z" fill="#E40613"/>
<path d="M15.5 163C24.0604 163 31 156.06 31 147.5C31 138.94 24.0604 132 15.5 132C6.93959 132 0 138.94 0 147.5C0 156.06 6.93959 163 15.5 163Z" fill="#E40613"/>
<path d="M15.5 92C24.0604 92 31 85.0604 31 76.5C31 67.9396 24.0604 61 15.5 61C6.93959 61 0 67.9396 0 76.5C0 85.0604 6.93959 92 15.5 92Z" fill="#E40613"/>
<path d="M137.071 59.3032C158.963 59.3032 178.291 73.5033 178.291 108.215L178 148.645L147 148.145L147.129 109.201C147.129 96.1841 141.607 86.3229 127.21 86.3229C115.179 86.3229 107.093 96.973 104.726 106.44L105 148.645H74L73.5646 109.201C73.5646 96.1841 65.4784 86.3229 53.645 86.3229C40.8254 86.3229 33.1337 95.0008 31.1614 106.44L31 147.645L0 147.437V75.6453L31 76.1453L31.1614 79.6173C31.5559 74.8839 41.6143 59.3032 61.7312 59.3032C76.523 59.3032 90.7231 67.1921 99.2038 81.5895C101.57 76.0672 113.404 59.3032 137.071 59.3032ZM278 63.6453L302 75.6453V148.645L275 158.645L270.986 153.182C269.606 156.732 260.336 165.41 244.558 165.41C221.088 165.41 194.069 148.646 194.069 111.962C194.069 76.6589 221.088 59.106 244.558 59.106C260.336 59.106 269.606 68.1783 270.986 70.3477L278 63.6453ZM249.094 137.995C261.914 137.995 272.367 129.12 272.367 111.962C272.367 95.3952 261.914 86.5201 249.094 86.5201C235.683 86.5201 224.244 95.5924 224.244 111.962C224.244 128.923 235.683 137.995 249.094 137.995ZM382 59.6453C384.761 59.6453 385.573 62.0536 388.137 62.6453L392.5 80.6453C390.133 80.0536 391.473 87.1453 389.5 87.1453C381 92.4369 355.004 102.692 353.426 121.626L353 148.645H323V76.1453L353 74.6453L353.426 85.9285C362 71.6453 370.5 60.881 382 59.6453ZM480 159.645L449.868 123.598L443 130.501V148.645H413V126.145V38.6453H443L443.36 92.4369L468 66.6453L487 84.6453L468.999 103.678L500 140.145L480 159.645ZM583.587 59.106C604.445 59.106 629 73 632 110C631.863 114.201 620.675 118.198 620 123.006H561.3C564.85 133.657 574.12 139.179 586.545 139.179C599.167 139.179 596 138 603 137L616 155C613 164 606.07 165.41 585.362 165.41C559.92 165.41 529.547 147.857 529.547 112.554C529.547 76.6589 560.314 59.106 583.587 59.106ZM583.587 85.7312C574.711 85.7312 565.639 90.8591 561.695 101.115H605.281C602.126 90.8591 592.462 85.7312 583.587 85.7312ZM700.54 137.404C706.063 137.404 702.661 139.183 707 138L711.5 158C709.5 161.5 702.907 164.621 692.454 164.621C675.296 164.621 660.898 158.901 660.898 127.345L661.5 87H658.5V61L660.898 60.881L661 51.5H692L692.06 61H701.5L701 87H692.06V127.345C692.06 131.881 693.243 137.404 700.54 137.404ZM888.89 166.015C869.759 166.015 850.234 153.196 850.234 120.654L850 76H881L881.395 117.484C881.395 133.065 886.72 137.995 896.581 137.995C910.584 137.995 918.671 124.387 920.643 118.47L921 76L952 75.861V151.5L921 151L920.643 145.687C918.671 150.618 908.218 166.015 888.89 166.015ZM1029.51 59.106C1052.98 59.106 1080 76.6589 1080 111.962C1080 148.646 1052.98 165.41 1029.51 165.41C1013.73 165.41 1004.46 156.732 1003.08 153.182L1001.5 157.5L972 151L971.921 60.881L972 38.5L1003 39L1003.08 70.3477C1004.46 68.1783 1013.73 59.106 1029.51 59.106ZM1024.97 137.995C1038.39 137.995 1049.82 128.923 1049.82 111.962C1049.82 95.5924 1038.39 86.5201 1024.97 86.5201C1012.15 86.5201 1001.7 95.3952 1001.7 111.962C1001.7 129.12 1012.15 137.995 1024.97 137.995Z" fill="#E40613"/>
<path d="M936.5 166C945.06 166 952 159.284 952 151C952 142.716 945.06 136 936.5 136C927.94 136 921 142.716 921 151C921 159.284 927.94 166 936.5 166Z" fill="#E40613"/>
<path d="M936.5 91C945.06 91 952 84.2843 952 76C952 67.7157 945.06 61 936.5 61C927.94 61 921 67.7157 921 76C921 84.2843 927.94 91 936.5 91Z" fill="#E40613"/>
<path d="M987.5 166C996.06 166 1003 159.284 1003 151C1003 142.716 996.06 136 987.5 136C978.94 136 972 142.716 972 151C972 159.284 978.94 166 987.5 166Z" fill="#E40613"/>
<path d="M987.5 54C996.06 54 1003 47.2843 1003 39C1003 30.7157 996.06 24 987.5 24C978.94 24 972 30.7157 972 39C972 47.2843 978.94 54 987.5 54Z" fill="#E40613"/>
<path d="M865.5 91C874.06 91 881 84.2843 881 76C881 67.7157 874.06 61 865.5 61C856.94 61 850 67.7157 850 76C850 84.2843 856.94 91 865.5 91Z" fill="#E40613"/>
<path d="M701.5 163C708.956 163 715 156.956 715 149.5C715 142.044 708.956 136 701.5 136C694.044 136 688 142.044 688 149.5C688 156.956 694.044 163 701.5 163Z" fill="#E40613"/>
<path d="M701 87C708.18 87 714 81.1797 714 74C714 66.8203 708.18 61 701 61C693.82 61 688 66.8203 688 74C688 81.1797 693.82 87 701 87Z" fill="#E40613"/>
<path d="M676.5 67C685.06 67 692 60.0604 692 51.5C692 42.9396 685.06 36 676.5 36C667.94 36 661 42.9396 661 51.5C661 60.0604 667.94 67 676.5 67Z" fill="#E40613"/>
<path d="M659 87C666.18 87 672 81.1797 672 74C672 66.8203 666.18 61 659 61C651.82 61 646 66.8203 646 74C646 81.1797 651.82 87 659 87Z" fill="#E40613"/>
<path d="M604 164C611.18 164 617 157.956 617 150.5C617 143.044 611.18 137 604 137C596.82 137 591 143.044 591 150.5C591 157.956 596.82 164 604 164Z" fill="#E40613"/>
<path d="M619.5 123C626.404 123 632 117.18 632 110C632 102.82 626.404 97 619.5 97C612.596 97 607 102.82 607 110C607 117.18 612.596 123 619.5 123Z" fill="#E40613"/>
<path d="M490 164C497.732 164 504 157.732 504 150C504 142.268 497.732 136 490 136C482.268 136 476 142.268 476 150C476 157.732 482.268 164 490 164Z" fill="#E40613"/>
<path d="M428 164C436.284 164 443 157.06 443 148.5C443 139.94 436.284 133 428 133C419.716 133 413 139.94 413 148.5C413 157.06 419.716 164 428 164Z" fill="#E40613"/>
<path d="M428 55C436.284 55 443 48.0604 443 39.5C443 30.9396 436.284 24 428 24C419.716 24 413 30.9396 413 39.5C413 48.0604 419.716 55 428 55Z" fill="#E40613"/>
<path d="M478 89C485.18 89 491 82.9558 491 75.5C491 68.0442 485.18 62 478 62C470.82 62 465 68.0442 465 75.5C465 82.9558 470.82 89 478 89Z" fill="#E40613"/>
<path d="M338 164C346.284 164 353 157.06 353 148.5C353 139.94 346.284 133 338 133C329.716 133 323 139.94 323 148.5C323 157.06 329.716 164 338 164Z" fill="#E40613"/>
<path d="M338 92C346.284 92 353 85.0604 353 76.5C353 67.9396 346.284 61 338 61C329.716 61 323 67.9396 323 76.5C323 85.0604 329.716 92 338 92Z" fill="#E40613"/>
<path d="M382 90C390.284 90 397 83.2843 397 75C397 66.7157 390.284 60 382 60C373.716 60 367 66.7157 367 75C367 83.2843 373.716 90 382 90Z" fill="#E40613"/>
<path d="M832.071 104.992C832.071 72.4498 828.131 64.9722 809 64.9722C789.672 64.9722 807.5 64.4722 761.661 65.9722V24.3271H730.5L730 149H761L760.661 106.175C762 99.4722 764.5 96.4722 781.5 96.4722C788 96.4722 800 95.4722 800.909 107.161L801 149H832L832.071 104.992Z" fill="#E40613"/>
<path d="M747 201C755.284 201 762 194.284 762 186C762 177.716 755.284 171 747 171C738.716 171 732 177.716 732 186C732 194.284 738.716 201 747 201Z" fill="#E40613"/>
<path d="M816.5 201C825.06 201 832 194.284 832 186C832 177.716 825.06 171 816.5 171C807.94 171 801 177.716 801 186C801 194.284 807.94 201 816.5 201Z" fill="#E40613"/>
<path d="M709.191 0H738.68C751.507 0 761.855 10.4922 761.678 23.3178L761.654 25H709.303L709.191 0Z" fill="#E40613"/>
<path d="M709.5 25C716.404 25 722 19.4036 722 12.5C722 5.59644 716.404 0 709.5 0C702.596 0 697 5.59644 697 12.5C697 19.4036 702.596 25 709.5 25Z" fill="#E40613"/>
<path d="M745.5 164C754.06 164 761 157.284 761 149C761 140.716 754.06 134 745.5 134C736.94 134 730 140.716 730 149C730 157.284 736.94 164 745.5 164Z" fill="#E40613"/>
<path d="M816.5 164C825.06 164 832 157.284 832 149C832 140.716 825.06 134 816.5 134C807.94 134 801 140.716 801 149C801 157.284 807.94 164 816.5 164Z" fill="#E40613"/>
</g>
<defs>
<clipPath id="clip0_879_721">
<rect width="1080" height="201" fill="white"/>
</clipPath>
</defs>
</svg>
